<?xml version="1.0" encoding="UTF-8" standalone="no"?>
<!DOCTYPE svg PUBLIC "-//W3C//DTD SVG 1.0//EN" "http://www.w3.org/TR/2001/PR-SVG-20010719/DTD/svg10.dtd">
<svg width="50cm" height="37cm" viewBox="288 -218 997 726" xmlns="http://www.w3.org/2000/svg" xmlns:xlink="http://www.w3.org/1999/xlink">
  <g>
    <rect style="fill: #ffffff" x="289" y="-38" width="994" height="390"/>
    <rect style="fill: none; fill-opacity:0; stroke-width: 2; stroke: #000000" x="289" y="-38" width="994" height="390"/>
    <rect style="fill: #ffffff" x="289" y="-58" width="127.2" height="20"/>
    <rect style="fill: none; fill-opacity:0; stroke-width: 2; stroke: #000000" x="289" y="-58" width="127.2" height="20"/>
    <text font-size="12.7998" style="fill: #000000;text-anchor:start;font-family:monospace;font-style:normal;font-weight:normal" x="291" y="-44">java.swing.table</text>
  </g>
  <g>
    <rect style="fill: #ffffff" x="378" y="37" width="256.4" height="44"/>
    <rect style="fill: none; fill-opacity:0; stroke-width: 2; stroke: #000000" x="378" y="37" width="256.4" height="44"/>
    <text font-size="12.8" style="fill: #000000;text-anchor:middle;font-family:monospace;font-style:normal;font-weight:normal" x="506.2" y="52.2">&lt;&lt;Abstract&gt;&gt;</text>
    <text font-size="16" style="fill: #000000;text-anchor:middle;font-family:sans-serif;font-style:normal;font-weight:700" x="506.2" y="73">AbstractTableModel</text>
    <rect style="fill: #ffffff" x="378" y="81" width="256.4" height="8"/>
    <rect style="fill: none; fill-opacity:0; stroke-width: 2; stroke: #000000" x="378" y="81" width="256.4" height="8"/>
    <rect style="fill: #ffffff" x="378" y="89" width="256.4" height="36"/>
    <rect style="fill: none; fill-opacity:0; stroke-width: 2; stroke: #000000" x="378" y="89" width="256.4" height="36"/>
    <text font-size="12.8" style="fill: #000000;text-anchor:start;font-family:monospace;font-style:normal;font-weight:normal" x="381" y="102.2">+getColumnClass(ColumnIndex:int)</text>
    <text font-size="12.8" style="fill: #000000;text-anchor:start;font-family:monospace;font-style:normal;font-weight:normal" x="381" y="118.2">+getColumnName(columnIndex:int)</text>
  </g>
  <g>
    <rect style="fill: #ffffff" x="851" y="27" width="387.3" height="44"/>
    <rect style="fill: none; fill-opacity:0; stroke-width: 2; stroke: #000000" x="851" y="27" width="387.3" height="44"/>
    <text font-size="12.8" style="fill: #000000;text-anchor:middle;font-family:monospace;font-style:normal;font-weight:normal" x="1044.65" y="42.2">&lt;&lt;Interface&gt;&gt;</text>
    <text font-size="16" style="fill: #000000;text-anchor:middle;font-family:sans-serif;font-style:normal;font-weight:700" x="1044.65" y="63">TableModel</text>
    <rect style="fill: #ffffff" x="851" y="71" width="387.3" height="8"/>
    <rect style="fill: none; fill-opacity:0; stroke-width: 2; stroke: #000000" x="851" y="71" width="387.3" height="8"/>
    <rect style="fill: #ffffff" x="851" y="79" width="387.3" height="100"/>
    <rect style="fill: none; fill-opacity:0; stroke-width: 2; stroke: #000000" x="851" y="79" width="387.3" height="100"/>
    <text font-size="12.8" style="fill: #000000;text-anchor:start;font-family:monospace;font-style:normal;font-weight:normal" x="854" y="92.2">+getColumnCount(): int</text>
    <text font-size="12.8" style="fill: #000000;text-anchor:start;font-family:monospace;font-style:normal;font-weight:normal" x="854" y="108.2">+getRowCount(): int</text>
    <text font-size="12.8" style="fill: #000000;text-anchor:start;font-family:monospace;font-style:normal;font-weight:normal" x="854" y="124.2">+getValueAt(rowIndex:int,columnIndex:int): Object</text>
    <text font-size="12.8" style="fill: #000000;text-anchor:start;font-family:monospace;font-style:normal;font-weight:normal" x="854" y="140.2">+getColumnClass(columnIndex:int)</text>
    <text font-size="12.8" style="fill: #000000;text-anchor:start;font-family:monospace;font-style:normal;font-weight:normal" x="854" y="156.2">+getColumnName(columnIndex:int): String</text>
    <text font-size="12.8" style="fill: #000000;text-anchor:start;font-family:monospace;font-style:normal;font-weight:normal" x="854" y="172.2">+...()</text>
  </g>
  <g>
    <rect style="fill: #ffffff" x="428" y="-217" width="156.3" height="28"/>
    <rect style="fill: none; fill-opacity:0; stroke-width: 2; stroke: #000000" x="428" y="-217" width="156.3" height="28"/>
    <text font-size="16" style="fill: #000000;text-anchor:middle;font-family:sans-serif;font-style:normal;font-weight:700" x="506.15" y="-197">Object</text>
    <rect style="fill: #ffffff" x="428" y="-189" width="156.3" height="8"/>
    <rect style="fill: none; fill-opacity:0; stroke-width: 2; stroke: #000000" x="428" y="-189" width="156.3" height="8"/>
    <rect style="fill: #ffffff" x="428" y="-181" width="156.3" height="20"/>
    <rect style="fill: none; fill-opacity:0; stroke-width: 2; stroke: #000000" x="428" y="-181" width="156.3" height="20"/>
    <text font-size="12.8" style="fill: #000000;text-anchor:start;font-family:monospace;font-style:normal;font-weight:normal" x="431" y="-167.8">+toString(): String</text>
  </g>
  <g>
    <polyline style="fill: none; fill-opacity:0; stroke-width: 2; stroke-dasharray: 8; stroke: #000000" points="831.758,103 734.701,103 734.701,81 635.408,81 "/>
    <polygon style="fill: #ffffff" points="831.758,111 847.758,103 831.758,95 "/>
    <polygon style="fill: none; fill-opacity:0; stroke-width: 2; stroke: #000000" points="831.758,111 847.758,103 831.758,95 "/>
  </g>
  <g>
    <rect style="fill: #ffffff" x="673" y="-180" width="110.1" height="44"/>
    <rect style="fill: none; fill-opacity:0; stroke-width: 2; stroke: #000000" x="673" y="-180" width="110.1" height="44"/>
    <text font-size="12.8" style="fill: #000000;text-anchor:middle;font-family:monospace;font-style:normal;font-weight:normal" x="728.05" y="-164.8">&lt;&lt;Interface&gt;&gt;</text>
    <text font-size="16" style="fill: #000000;text-anchor:middle;font-family:sans-serif;font-style:normal;font-weight:700" x="728.05" y="-144">Serializable</text>
    <rect style="fill: #ffffff" x="673" y="-136" width="110.1" height="8"/>
    <rect style="fill: none; fill-opacity:0; stroke-width: 2; stroke: #000000" x="673" y="-136" width="110.1" height="8"/>
    <rect style="fill: #ffffff" x="673" y="-128" width="110.1" height="8"/>
    <rect style="fill: none; fill-opacity:0; stroke-width: 2; stroke: #000000" x="673" y="-128" width="110.1" height="8"/>
  </g>
  <g>
    <polyline style="fill: none; fill-opacity:0; stroke-width: 2; stroke: #000000" points="506.15,-141.757 506.15,-53.9992 506.2,-53.9992 506.2,35.9945 "/>
    <polygon style="fill: #ffffff" points="514.15,-141.757 506.15,-157.757 498.15,-141.757 "/>
    <polygon style="fill: none; fill-opacity:0; stroke-width: 2; stroke: #000000" points="514.15,-141.757 506.15,-157.757 498.15,-141.757 "/>
  </g>
  <g>
    <polyline style="fill: none; fill-opacity:0; stroke-width: 2; stroke-dasharray: 8; stroke: #000000" points="728.05,-100.785 728.05,-14 506.2,-14 506.2,35.9933 "/>
    <polygon style="fill: #ffffff" points="736.05,-100.785 728.05,-116.785 720.05,-100.785 "/>
    <polygon style="fill: none; fill-opacity:0; stroke-width: 2; stroke: #000000" points="736.05,-100.785 728.05,-116.785 720.05,-100.785 "/>
  </g>
  <g>
    <rect style="fill: #ffffff" x="629" y="208" width="371.9" height="28"/>
    <rect style="fill: none; fill-opacity:0; stroke-width: 2; stroke: #000000" x="629" y="208" width="371.9" height="28"/>
    <text font-size="16" style="fill: #000000;text-anchor:middle;font-family:sans-serif;font-style:normal;font-weight:700" x="814.95" y="228">DefaultTableModel</text>
    <rect style="fill: #ffffff" x="629" y="236" width="371.9" height="36"/>
    <rect style="fill: none; fill-opacity:0; stroke-width: 2; stroke: #000000" x="629" y="236" width="371.9" height="36"/>
    <text font-size="12.8" style="fill: #000000;text-anchor:start;font-family:monospace;font-style:normal;font-weight:normal" x="632" y="249.2">#Identifiers: Vector</text>
    <text font-size="12.8" style="fill: #000000;text-anchor:start;font-family:monospace;font-style:normal;font-weight:normal" x="632" y="265.2">#dataVector: Vector of Vectors of object values</text>
    <rect style="fill: #ffffff" x="629" y="272" width="371.9" height="52"/>
    <rect style="fill: none; fill-opacity:0; stroke-width: 2; stroke: #000000" x="629" y="272" width="371.9" height="52"/>
    <text font-size="12.8" style="fill: #000000;text-anchor:start;font-family:monospace;font-style:normal;font-weight:normal" x="632" y="285.2">+getRowCount(): int</text>
    <text font-size="12.8" style="fill: #000000;text-anchor:start;font-family:monospace;font-style:normal;font-weight:normal" x="632" y="301.2">+getColumnCount(): int</text>
    <text font-size="12.8" style="fill: #000000;text-anchor:start;font-family:monospace;font-style:normal;font-weight:normal" x="632" y="317.2">+getColumnName(columnIndex:int): String</text>
  </g>
  <g>
    <polyline style="fill: none; fill-opacity:0; stroke-width: 2; stroke: #000000" points="506.2,144.242 506.2,175.003 814.95,175.003 814.95,208 "/>
    <polygon style="fill: #ffffff" points="514.2,144.242 506.2,128.242 498.2,144.242 "/>
    <polygon style="fill: none; fill-opacity:0; stroke-width: 2; stroke: #000000" points="514.2,144.242 506.2,128.242 498.2,144.242 "/>
  </g>
  <g>
    <rect style="fill: #ffffff" x="421" y="463" width="172.3" height="28"/>
    <rect style="fill: none; fill-opacity:0; stroke-width: 2; stroke: #000000" x="421" y="463" width="172.3" height="28"/>
    <text font-size="16" style="fill: #000000;text-anchor:middle;font-family:sans-serif;font-style:normal;font-weight:700" x="507.15" y="483">HerrienTableModela</text>
    <rect style="fill: #ffffff" x="421" y="491" width="172.3" height="8"/>
    <rect style="fill: none; fill-opacity:0; stroke-width: 2; stroke: #000000" x="421" y="491" width="172.3" height="8"/>
    <rect style="fill: #ffffff" x="421" y="499" width="172.3" height="8"/>
    <rect style="fill: none; fill-opacity:0; stroke-width: 2; stroke: #000000" x="421" y="499" width="172.3" height="8"/>
  </g>
  <g>
    <polyline style="fill: none; fill-opacity:0; stroke-width: 2; stroke: #000000" points="506.2,144.242 506.2,302 507.15,302 507.15,461.994 "/>
    <polygon style="fill: #ffffff" points="514.2,144.242 506.2,128.242 498.2,144.242 "/>
    <polygon style="fill: none; fill-opacity:0; stroke-width: 2; stroke: #000000" points="514.2,144.242 506.2,128.242 498.2,144.242 "/>
  </g>
</svg>
